# xmcd
#
# Track frame offsets: 
#        150
#        16882
#        33974
#        49815
#        67978
#        80417
#        94129
#        106397
#        125982
#        136858
#        158436
#        179033
#        205290
#        227837
#        246859
#        265144
#        284942
#        315661
#
# Disc length: 4384 seconds
#
# Revision: 0
# Processed by: cddbd v1.5.2PL0 Copyright (c) Steve Scherf et al.
# Submitted via: ExactAudioCopy v0.95b4
#
DISCID=04111e12
DTITLE=Maria Muldaur - The Best of Me
DYEAR=2002
DGENRE=Blues
TTITLE0=Any Old Time
TTITLE1=Midnight At The Oasis
TTITLE2=My Tennessee Mt. Home
TTITLE3=The Work Song
TTITLE4=Walkin' One And Only
TTITLE5=Waitress In A Donut Shop
TTITLE6=If You Haven't Any Hay
TTITLE7=Brickyard Blues
TTITLE8=Travellin' Shoes
TTITLE9=Sweet Harmony
TTITLE10=The Best Of Me (with Dr. John)
TTITLE11=Louisiana Love Call
TTITLE12=Cajun Moon
TTITLE13=Creole Eyes
TTITLE14=Don't You Feel My Leg
TTITLE15=Gee Baby (with Charles Brown)
TTITLE16=Feels Like Rain
TTITLE17=It Ain't The Meat
EXTD=
EXTT0=
EXTT1=
EXTT2=
EXTT3=
EXTT4=
EXTT5=
EXTT6=
EXTT7=
EXTT8=
EXTT9=
EXTT10=
EXTT11=
EXTT12=
EXTT13=
EXTT14=
EXTT15=
EXTT16=
EXTT17=
PLAYORDER=
